<svg aria-hidden="true" style="position: absolute; width: 0; height: 0; overflow: hidden;" version="1.1" xmlns="http://www.w3.org/2000/svg" xmlns:xlink="http://www.w3.org/1999/xlink">
<defs>
<symbol id="icon-what_do_3" viewBox="0 0 32 32">
<path fill="none" stroke="#ccf203" style="stroke: var(--color1, #ccf203)" stroke-linejoin="round" stroke-linecap="round" stroke-miterlimit="10" stroke-width="1.6" d="M20 26c5.523 0 10-4.477 10-10s-4.477-10-10-10c-5.523 0-10 4.477-10 10s4.477 10 10 10z"></path>
<path fill="none" stroke="#ccf203" style="stroke: var(--color1, #ccf203)" stroke-linejoin="round" stroke-linecap="round" stroke-miterlimit="10" stroke-width="1.6" d="M20 17c0.552 0 1-0.448 1-1s-0.448-1-1-1c-0.552 0-1 0.448-1 1s0.448 1 1 1z"></path>
<path fill="none" stroke="#ccf203" style="stroke: var(--color1, #ccf203)" stroke-linejoin="round" stroke-linecap="round" stroke-miterlimit="10" stroke-width="1.6" d="M20 13.333c-0.567 0-1-0.433-1-1v-3.333c0-0.533 0.433-1 1-1 0.533 0 1 0.433 1 1v3.333c0 0.567-0.433 1-1 1z"></path>
<path fill="none" stroke="#ccf203" style="stroke: var(--color1, #ccf203)" stroke-linejoin="round" stroke-linecap="round" stroke-miterlimit="10" stroke-width="1.6" d="M25.733 21.733c-0.4 0.4-1.033 0.4-1.4 0l-2.367-2.367c-0.4-0.4-0.4-1.033 0-1.4 0.4-0.4 1.033-0.4 1.4 0l2.367 2.367c0.4 0.367 0.4 1 0 1.4z"></path>
<path fill="none" stroke="#ccf203" style="stroke: var(--color1, #ccf203)" stroke-linejoin="round" stroke-linecap="round" stroke-miterlimit="10" stroke-width="1.6" d="M18.067 17.967c0.4 0.4 0.4 1.033 0 1.4l-2.367 2.367c-0.4 0.4-1.033 0.4-1.4 0-0.4-0.4-0.4-1.033 0-1.4l2.367-2.367c0.367-0.4 1-0.4 1.4 0z"></path>
<path fill="none" stroke="#ccf203" style="stroke: var(--color1, #ccf203)" stroke-linejoin="round" stroke-linecap="round" stroke-miterlimit="10" stroke-width="1.6" d="M11.667 7.333h-3.667c-0.733 0-1.333 0.6-1.333 1.333v6.667c0 0.733-0.6 1.333-1.333 1.333h-3.333"></path>
</symbol>
<symbol id="icon-about_us_2" viewBox="0 0 32 32">
<path d="M7.888 13.288h-6.65c-0.338 0-0.613 0.275-0.613 0.612s0.275 0.613 0.613 0.613h6.65c0.338 0 0.612-0.275 0.612-0.613s-0.275-0.612-0.612-0.612z"></path>
<path d="M7.888 16.9h-3.062c-0.338 0-0.612 0.275-0.612 0.612s0.275 0.613 0.612 0.613h3.062c0.338 0 0.612-0.275 0.612-0.613s-0.275-0.612-0.612-0.612z"></path>
<path d="M7.888 20.512h-5.050c-0.337 0-0.612 0.275-0.612 0.612s0.275 0.613 0.612 0.613h5.050c0.338 0 0.612-0.275 0.612-0.613s-0.275-0.612-0.612-0.612z"></path>
<path d="M30.362 12.988c-0.5-1.062-1.162-2.025-1.975-2.862-0.387-0.412-0.825-0.787-1.275-1.125l0.8-1.062c0.2-0.275 0.15-0.663-0.125-0.863s-0.662-0.15-0.862 0.125l-0.85 1.125c-0.562-0.338-1.162-0.612-1.775-0.838-0.538-0.188-1.087-0.337-1.65-0.45-0.362-0.063-0.737-0.112-1.1-0.138v-1.862h1.238c0.338 0 0.613-0.275 0.613-0.612s-0.275-0.612-0.613-0.612h-3.712c-0.337 0-0.613 0.275-0.613 0.612s0.275 0.612 0.613 0.612h1.238v1.813c-1.425 0.050-2.838 0.388-4.138 0.987-1.062 0.5-2.025 1.15-2.875 1.962-1.188 1.125-2.1 2.538-2.662 4.075-0.2 0.538-0.35 1.113-0.463 1.688s-0.162 1.15-0.188 1.725c-0.038 1.65 0.313 3.3 1.025 4.8 0.5 1.050 1.15 2 1.962 2.838 1.138 1.188 2.55 2.1 4.088 2.65 0.538 0.188 1.087 0.338 1.65 0.45 0.562 0.1 1.125 0.162 1.7 0.175 0.087 0 0.188 0 0.275 0 1.55 0 3.1-0.338 4.5-1 1.050-0.488 2.012-1.138 2.85-1.938 1.2-1.137 2.125-2.55 2.688-4.1 0.2-0.537 0.35-1.112 0.45-1.675 0.113-0.575 0.175-1.162 0.188-1.737 0.050-1.638-0.3-3.288-1-4.763zM29.975 19.25c-0.1 0.512-0.225 1-0.4 1.488-0.5 1.362-1.313 2.625-2.375 3.625-0.738 0.7-1.587 1.288-2.525 1.712-1.313 0.613-2.788 0.925-4.212 0.875-0.5-0.012-1-0.063-1.5-0.163-0.5-0.087-0.988-0.225-1.462-0.387-1.362-0.488-2.613-1.3-3.613-2.35-0.713-0.738-1.3-1.588-1.738-2.512-0.625-1.313-0.937-2.788-0.9-4.238 0.012-0.512 0.063-1.025 0.163-1.525 0.1-0.512 0.237-1.012 0.4-1.488 0.488-1.362 1.3-2.6 2.35-3.6 0.75-0.713 1.6-1.3 2.55-1.737 1.237-0.575 2.613-0.875 3.975-0.875 0.075 0 0.162 0 0.238 0 0.5 0.012 1 0.063 1.5 0.163 0.5 0.088 0.988 0.225 1.462 0.4 1.362 0.488 2.613 1.287 3.613 2.337 0.712 0.75 1.3 1.6 1.75 2.538 0.613 1.313 0.925 2.762 0.888 4.212-0.012 0.5-0.063 1.025-0.163 1.525z"></path>
<path d="M24.512 13.238l-2.638 2.387c-0.137-0.088-0.275-0.15-0.425-0.213-0.113-0.038-0.225-0.075-0.338-0.088-0.125-0.025-0.238-0.038-0.35-0.038-0.337-0.012-0.688 0.063-1 0.213-0.225 0.1-0.425 0.238-0.6 0.412-0.25 0.238-0.437 0.525-0.55 0.85-0.038 0.112-0.075 0.225-0.1 0.35s-0.038 0.238-0.038 0.362c-0.012 0.35 0.063 0.688 0.212 1 0.1 0.225 0.238 0.413 0.413 0.588 0.238 0.25 0.538 0.437 0.85 0.55 0.112 0.038 0.225 0.075 0.337 0.087 0.113 0.025 0.238 0.038 0.35 0.038 0.025 0 0.037 0 0.062 0 0.325 0 0.65-0.075 0.938-0.212 0.212-0.1 0.425-0.238 0.6-0.4 0.25-0.238 0.437-0.538 0.562-0.85 0.038-0.112 0.075-0.225 0.1-0.35s0.038-0.238 0.038-0.362c0.012-0.338-0.063-0.688-0.212-1 0-0.012-0.012-0.012-0.012-0.025l2.65-2.387c0.25-0.225 0.275-0.625 0.050-0.875-0.25-0.237-0.638-0.262-0.9-0.037zM21.675 17.7c-0.012 0.050-0.025 0.113-0.037 0.163-0.050 0.137-0.138 0.275-0.25 0.375-0.075 0.075-0.162 0.137-0.262 0.175-0.138 0.062-0.288 0.087-0.438 0.087-0.050 0-0.113-0.012-0.162-0.012-0.050-0.012-0.1-0.025-0.15-0.037-0.137-0.050-0.275-0.138-0.375-0.25-0.075-0.075-0.138-0.162-0.188-0.262-0.062-0.138-0.1-0.288-0.1-0.438 0-0.050 0.012-0.113 0.012-0.162 0.012-0.050 0.025-0.113 0.037-0.163 0.050-0.137 0.138-0.275 0.25-0.375 0.075-0.075 0.162-0.137 0.262-0.188 0.138-0.062 0.275-0.087 0.413-0.087 0.012 0 0.012 0 0.025 0 0.050 0 0.1 0.012 0.162 0.012 0.050 0.012 0.1 0.025 0.15 0.037 0.15 0.050 0.275 0.138 0.375 0.25 0.075 0.075 0.138 0.175 0.188 0.262 0.063 0.138 0.1 0.288 0.087 0.438 0.012 0.062 0 0.125 0 0.175z"></path>
</symbol>
<symbol id="icon-what_do_4" viewBox="0 0 32 32">
<path d="M4.031 23.455l-0.759 0.759 4.514 4.514 0.759-0.759-4.514-4.514z"></path>
<path d="M25.273 7.241l-18.213 18.213 2 2 18.213-18.213-2-2z"></path>
<path d="M22.759 4.727l-18.213 18.213 2 2 18.213-18.213-2-2z"></path>
<path d="M29.974 6.54c0.297-0.296 0.533-0.648 0.693-1.036s0.244-0.803 0.244-1.222-0.082-0.835-0.243-1.223c-0.16-0.388-0.396-0.74-0.692-1.036s-0.649-0.532-1.036-0.692-0.803-0.243-1.223-0.243c-0.419 0-0.835 0.083-1.222 0.244s-0.739 0.397-1.036 0.693l-0.914 0.914 4.514 4.514 0.914-0.914z"></path>
<path d="M24.031 3.454l-0.759 0.759 4.514 4.514 0.759-0.759-4.514-4.514z"></path>
<path d="M1.107 30.437c-0.020 0.063-0.022 0.131-0.006 0.195s0.049 0.123 0.096 0.17 0.106 0.080 0.17 0.096c0.064 0.016 0.132 0.014 0.195-0.006l5.608-1.753-4.311-4.311-1.753 5.608z"></path>
<path d="M3.561 8.288c0.069-0.066 0.16-0.103 0.256-0.102s0.187 0.039 0.254 0.106c0.067 0.067 0.106 0.159 0.107 0.254s-0.036 0.187-0.102 0.256l-1.713 1.713 1.304 1.304 1.713-1.713c0.069-0.066 0.16-0.103 0.256-0.102s0.187 0.039 0.254 0.106c0.067 0.067 0.106 0.159 0.106 0.254s-0.036 0.187-0.102 0.256l-1.713 1.713 1.304 1.304 1.713-1.713c0.069-0.066 0.16-0.103 0.256-0.102s0.187 0.039 0.254 0.106c0.067 0.067 0.106 0.159 0.106 0.254s-0.036 0.187-0.102 0.256l-1.713 1.713 1.304 1.304 1.713-1.713c0.069-0.066 0.16-0.103 0.256-0.102s0.187 0.039 0.254 0.107c0.067 0.067 0.106 0.159 0.107 0.254s-0.036 0.187-0.102 0.256l-1.713 1.713 1.336 1.336 6.182-6.182-8.938-8.942-5.927 5.924c-0.068 0.069-0.106 0.161-0.106 0.258s0.038 0.19 0.106 0.258l1.379 1.379 1.713-1.713z"></path>
<path d="M17.305 9.153l-8.684-8.684c-0.069-0.068-0.161-0.106-0.258-0.106s-0.19 0.038-0.258 0.106l-1.196 1.2 8.942 8.938 1.455-1.455z"></path>
<path d="M31.531 23.378l-8.684-8.684-1.455 1.455 8.938 8.942 1.2-1.196c0.068-0.069 0.106-0.161 0.106-0.258s-0.038-0.19-0.106-0.258z"></path>
<path d="M14.695 22.847l1.336 1.336 1.713-1.713c0.069-0.066 0.16-0.103 0.256-0.102s0.187 0.039 0.254 0.107c0.067 0.067 0.106 0.159 0.106 0.254s-0.036 0.187-0.102 0.256l-1.713 1.713 1.304 1.304 1.713-1.713c0.034-0.035 0.074-0.062 0.118-0.082s0.092-0.029 0.14-0.029c0.048-0 0.096 0.009 0.141 0.027s0.085 0.045 0.119 0.079c0.034 0.034 0.061 0.075 0.079 0.119s0.027 0.093 0.027 0.141c-0 0.048-0.010 0.096-0.029 0.14s-0.047 0.084-0.082 0.118l-1.713 1.713 1.304 1.304 1.713-1.713c0.034-0.035 0.074-0.062 0.118-0.081s0.092-0.029 0.14-0.030c0.048-0 0.096 0.009 0.141 0.027s0.085 0.045 0.119 0.079c0.034 0.034 0.061 0.075 0.079 0.119s0.027 0.093 0.027 0.141c-0 0.048-0.010 0.096-0.030 0.14s-0.047 0.084-0.081 0.118l-1.713 1.713 1.304 1.304 1.713-1.713c0.034-0.035 0.074-0.062 0.118-0.082s0.092-0.029 0.14-0.029c0.048-0 0.096 0.009 0.141 0.027s0.085 0.045 0.119 0.079c0.034 0.034 0.061 0.075 0.079 0.119s0.027 0.093 0.027 0.141c-0 0.048-0.010 0.096-0.030 0.14s-0.047 0.085-0.082 0.118l-1.713 1.713 1.379 1.379c0.069 0.068 0.162 0.105 0.258 0.105s0.189-0.038 0.258-0.105l5.924-5.927-8.942-8.938-6.182 6.182z"></path>
</symbol>
<symbol id="icon-about_us_3" viewBox="0 0 32 32">
<path d="M31.846 22.407c-0.313-0.878-0.955-1.562-1.808-1.937s-1.793-0.38-2.651-0.015l-5.754 2.43c0.005-0.067 0.010-0.144 0.010-0.216 0-1.12-0.909-2.029-2.029-2.029h-4.151c-0.17 0-0.334-0.036-0.488-0.108l-3.519-1.587c-0.55-0.252-1.161-0.385-1.767-0.385h-2.98v-0.288c0-0.565-0.457-1.027-1.027-1.027h-5.682v12.966h5.682c0.57 0 1.027-0.462 1.027-1.027v-0.806h1.649l6.139 1.973c0.509 0.159 1.033 0.241 1.562 0.241 0.832 0 1.664-0.2 2.404-0.596l13.537-7.172-0.154-0.416zM3.611 28.304c-0.396 0-0.719-0.324-0.719-0.719 0-0.401 0.324-0.724 0.719-0.724s0.719 0.324 0.719 0.724c0 0.396-0.324 0.719-0.719 0.719zM17.986 29.085c-0.971 0.519-2.127 0.616-3.175 0.283l-6.216-1.998-1.885-0.021v-7.762h2.98c0.462 0 0.925 0.103 1.341 0.293l3.519 1.593c0.288 0.128 0.596 0.195 0.914 0.195h4.151c0.555 0 1.002 0.452 1.002 1.002 0 0.555-0.447 1.002-1.002 1.002h-5.374v1.027h5.374c0.375 0 0.724-0.098 1.022-0.277l7.151-3.021c0.596-0.252 1.248-0.247 1.839 0.010 0.452 0.2 0.822 0.529 1.068 0.945l-12.71 6.73z"></path>
<path d="M4.654 15.172l3.199-1.773 3.133 1.887-0.697-3.591 2.299-1.994-0.849 3.657c-0.046 0.198 0.029 0.404 0.191 0.526s0.381 0.138 0.558 0.039l3.556-1.97 3.482 2.098c0.168 0.102 0.388 0.1 0.559-0.019 0.166-0.116 0.248-0.32 0.21-0.519l-0.775-3.991 0.073-0.063 2.303 2.149-0.827 3.563 3.199-1.773 3.133 1.887-0.697-3.591 2.763-2.396-3.63-0.446-1.425-3.369-1.546 3.315-2.788 0.241 2.513-2.18c0.154-0.133 0.214-0.344 0.155-0.538s-0.227-0.335-0.428-0.36l-4.035-0.496-1.584-3.744c-0.079-0.187-0.261-0.31-0.464-0.314-0.003 0-0.007 0-0.010 0-0.199 0-0.381 0.115-0.466 0.296l-1.719 3.684-4.050 0.35c-0.441 0.038-0.632 0.582-0.307 0.887l2.79 2.603-3.053-0.376-1.425-3.369-1.546 3.315-3.644 0.315 2.675 2.495-0.827 3.563zM14.426 6.388c0.183-0.016 0.344-0.128 0.421-0.294l1.356-2.906 1.25 2.953c0.072 0.169 0.228 0.287 0.41 0.31l3.183 0.391-2.423 2.101c-0.139 0.12-0.203 0.306-0.168 0.486l0.611 3.148-2.747-1.655c-0.158-0.096-0.355-0.098-0.514-0.009l-2.805 1.554 0.725-3.124c0.042-0.179-0.016-0.366-0.15-0.492l-2.345-2.188 3.195-0.276z"></path>
</symbol>
<symbol id="icon-what_do_2" viewBox="0 0 32 32">
<path d="M30.538 15.638l-6.038-2.263v-6.781c0-0.938-0.581-1.775-1.462-2.106l-6.25-2.344c-0.506-0.194-1.069-0.194-1.581 0l-6.25 2.344c-0.881 0.331-1.462 1.169-1.462 2.106v6.781l-6.037 2.263c-0.875 0.331-1.456 1.169-1.456 2.106v6.881c0 0.85 0.481 1.631 1.244 2.013l6.25 3.125c0.631 0.319 1.381 0.319 2.012 0l6.494-3.25 6.494 3.25c0.631 0.319 1.381 0.319 2.012 0l6.25-3.125c0.763-0.381 1.244-1.163 1.244-2.013v-6.881c0-0.938-0.581-1.775-1.462-2.106zM22.375 13.425l-5.313 1.994v-4.263l5.313-2.312v4.581zM9.625 6.506l6.375-2.387 6.375 2.387v0.038l-6.375 2.587-6.375-2.587v-0.038zM14.875 24.7l-5.313 2.656v-4.944l5.313-2.425v4.713zM14.875 17.7l-6.375 2.588-6.375-2.588v-0.038l6.375-2.387 6.375 2.387v0.038zM29.875 24.7l-5.313 2.656v-4.944l5.313-2.425v4.713zM29.875 17.7l-6.375 2.588-6.375-2.588v-0.038l6.375-2.387 6.375 2.387v0.038z"></path>
</symbol>
<symbol id="icon-about_us_1" viewBox="0 0 32 32">
<path d="M29.976 15.783l-2-9c-0.056-0.252-0.207-0.472-0.421-0.615l-6-4c-0.164-0.11-0.357-0.168-0.555-0.168h-10c-0.197 0-0.39 0.058-0.555 0.168l-6 4c-0.215 0.143-0.366 0.363-0.421 0.615l-2 9c-0.037 0.167-0.031 0.34 0.018 0.504l3 10c0.048 0.159 0.134 0.303 0.251 0.42s0.261 0.203 0.42 0.251l10.005 3c0.184 0.055 0.38 0.055 0.564 0l0.005-0 10-3c0.159-0.047 0.303-0.134 0.42-0.251s0.203-0.261 0.251-0.42l3-10c0.049-0.164 0.055-0.337 0.018-0.504zM10.926 16.616l-3.909-7.819 7.282 2.648-3.372 5.171zM16 12.497l3.589 5.503h-7.178l3.589-5.503zM19.382 20l-3.382 6.764-3.382-6.764h6.764zM17.702 11.445l7.281-2.648-3.91 7.819-3.372-5.171zM18.19 9.14l3.096-4.747 3.515 2.343-6.611 2.404zM16 8.836l-3.154-4.836h6.308l-3.154 4.836zM13.81 9.14l-6.611-2.404 3.515-2.343 3.096 4.747zM8.966 17.17l-4.802-1.801 1.201-5.402 3.601 7.203zM14.070 27.377l-6.502-1.951 3.128-4.797 3.374 6.748zM21.303 20.629l3.128 4.797-6.502 1.951 3.373-6.748zM26.635 9.967l1.201 5.402-4.802 1.801 3.601-7.203zM4.537 17.645l4.594 1.723-2.793 4.283-1.802-6.006zM25.661 23.65l-2.793-4.283 4.594-1.723-1.802 6.005z"></path>
</symbol>
<symbol id="icon-what_do_1" viewBox="0 0 32 32">
<path d="M28 23v3.586l-5-5v-6.586c0-0.186-0.052-0.368-0.149-0.526s-0.237-0.286-0.403-0.369l-5.447-2.724v-5.554l2.586 2.586 1.414-1.414-5-5-5 5 1.414 1.414 2.586-2.586v5.554l-5.447 2.724c-0.166 0.083-0.306 0.211-0.403 0.369s-0.149 0.34-0.149 0.526v6.586l-5 5v-3.586h-2v7h7v-2h-3.586l4.783-4.783 5.355 2.678c0.139 0.069 0.292 0.105 0.447 0.105s0.308-0.036 0.447-0.105l5.355-2.678 4.783 4.783h-3.586v2h7v-7h-2zM15 23.382l-4-2v-4.764l4 2v4.764zM16 16.882l-3.764-1.882 3.764-1.882 3.764 1.882-3.764 1.882zM21 21.382l-4 2v-4.764l4-2v4.764z"></path>
</symbol>
<symbol id="icon-logo" viewBox="0 0 94 32">
<path d="M40.706 14c-0.002-0.442-0.291-0.845-0.703-0.997l-9.882-3.529c-0.23-0.081-0.482-0.081-0.712 0l-9.882 3.529c-0.411 0.154-0.701 0.554-0.703 0.998v11.522c0.005 0.439 0.288 0.846 0.703 0.996l9.882 3.529c0.226 0.079 0.486 0.080 0.712 0l9.882-3.529c0.266-0.101 0.488-0.301 0.607-0.56 0.060-0.138 0.089-0.286 0.096-0.436v-11.522zM20.941 15.502l7.765 2.773v9.271l-7.765-2.773v-9.271zM30.824 18.276l7.765-2.773v9.271l-7.765 2.773v-9.271zM29.765 11.595l6.734 2.405-6.734 2.405-6.734-2.405 6.734-2.405z"></path>
<path d="M7.227 26.98v-13.787h-4.533v-2.493h12.331v2.493h-4.533v13.787h-3.265zM45.995 10.701h6.386c1.787 0 3.118 0.408 3.993 1.224 0.875 0.809 1.313 2.132 1.313 3.971 0 1.257-0.173 2.29-0.518 3.099-0.346 0.802-0.93 1.397-1.754 1.787-0.816 0.39-1.934 0.585-3.353 0.585h-2.79v5.614h-3.276v-16.279zM52.58 18.973c0.551 0 0.974-0.107 1.268-0.32s0.496-0.537 0.607-0.971 0.165-0.974 0.165-1.621c0-0.574-0.055-1.088-0.165-1.544-0.103-0.456-0.294-0.816-0.574-1.081-0.279-0.272-0.676-0.408-1.191-0.408h-3.419v5.945h3.309zM66.576 27.278c-1.382 0-2.51-0.202-3.386-0.607-0.875-0.412-1.518-0.996-1.93-1.754-0.412-0.765-0.618-1.68-0.618-2.746h2.956c0 0.677 0.103 1.206 0.309 1.588 0.213 0.382 0.54 0.651 0.981 0.805s1.015 0.232 1.72 0.232c0.986 0 1.698-0.224 2.14-0.673 0.449-0.456 0.673-1.118 0.673-1.985 0-0.669-0.1-1.195-0.298-1.577s-0.559-0.654-1.081-0.816c-0.514-0.162-1.246-0.243-2.195-0.243v-2.195c0.794 0 1.423-0.044 1.886-0.132 0.471-0.096 0.82-0.235 1.048-0.419 0.228-0.191 0.375-0.434 0.441-0.728 0.073-0.294 0.11-0.64 0.11-1.037 0-0.676-0.198-1.199-0.595-1.566s-1.129-0.551-2.195-0.551c-0.735 0-1.313 0.085-1.732 0.254s-0.717 0.452-0.894 0.849c-0.176 0.39-0.265 0.927-0.265 1.61h-2.945c0-1.301 0.239-2.331 0.717-3.088s1.151-1.294 2.018-1.61c0.868-0.323 1.89-0.485 3.066-0.485 1.162 0 2.184 0.173 3.066 0.518s1.57 0.849 2.062 1.511c0.5 0.662 0.75 1.463 0.75 2.404 0 0.544-0.073 1.077-0.22 1.599-0.14 0.515-0.419 0.956-0.838 1.324-0.419 0.36-1.044 0.592-1.875 0.695l0.067-0.165c0.765 0.14 1.364 0.401 1.798 0.783 0.441 0.382 0.754 0.849 0.937 1.401s0.276 1.154 0.276 1.809c0 0.949-0.203 1.801-0.607 2.559-0.397 0.75-1.033 1.346-1.908 1.787-0.868 0.434-2.015 0.651-3.442 0.651zM76.392 26.98v-16.279h7.059c1.574 0 2.794 0.254 3.662 0.761 0.868 0.5 1.475 1.18 1.82 2.040 0.346 0.853 0.518 1.813 0.518 2.879v4.996c0 1.081-0.183 2.044-0.551 2.89-0.361 0.846-0.974 1.511-1.842 1.996-0.868 0.478-2.066 0.717-3.595 0.717h-7.070zM79.668 24.433h3.507c0.772 0 1.375-0.092 1.808-0.276 0.434-0.191 0.739-0.482 0.915-0.871 0.184-0.39 0.276-0.886 0.276-1.489v-5.846c0-0.588-0.092-1.081-0.276-1.478-0.184-0.404-0.496-0.71-0.937-0.915-0.434-0.206-1.029-0.309-1.786-0.309h-3.507v11.184z"></path>
</symbol>
<symbol id="icon-telegram" viewBox="0 0 41 32">
<path d="M16.3 19.943l-0.676 8.336c0.909 0.004 1.304-0.358 1.778-0.793l4.279-3.78 8.8 6.077c1.615 0.85 2.758 0.412 3.204-1.375l5.92-25.318c0.524-2.232-0.851-3.112-2.431-2.571l-34.124 12.007c-2.329 0.831-2.3 2.041-0.408 2.598l8.697 2.57 20.286-11.715c0.955-0.584 1.819-0.254 1.104 0.331l-16.43 13.634z"></path>
</symbol>
<symbol id="icon-facebook" viewBox="0 0 17 32">
<path d="M14.816 15.849l-4.226-0.021-0.076 15.573-6.403-0.031 0.076-15.573-3.045-0.015 0.027-5.473 3.045 0.015 0.017-3.542c0.012-2.533 1.228-6.493 6.491-6.467l4.743 0.043-0.026 5.312-3.441-0.017c-0.564-0.003-1.36 0.277-1.365 1.485l-0.016 3.221 4.785 0.023-0.586 5.465z"></path>
</symbol>
<symbol id="icon-instagram" viewBox="0 0 32 32">
<path d="M16 0c-4.347 0-4.889 0.020-6.596 0.096-1.704 0.080-2.864 0.348-3.884 0.744-1.052 0.408-1.945 0.956-2.835 1.845s-1.439 1.781-1.845 2.835c-0.396 1.020-0.665 2.18-0.744 3.884-0.080 1.707-0.096 2.249-0.096 6.596s0.020 4.889 0.096 6.596c0.080 1.703 0.348 2.864 0.744 3.884 0.408 1.051 0.956 1.945 1.845 2.835 0.889 0.888 1.781 1.439 2.835 1.845 1.021 0.395 2.181 0.665 3.884 0.744 1.707 0.080 2.249 0.096 6.596 0.096s4.889-0.020 6.596-0.096c1.703-0.080 2.864-0.349 3.884-0.744 1.051-0.408 1.945-0.957 2.835-1.845 0.888-0.889 1.439-1.78 1.845-2.835 0.395-1.020 0.665-2.181 0.744-3.884 0.080-1.707 0.096-2.249 0.096-6.596s-0.020-4.889-0.096-6.596c-0.080-1.703-0.349-2.865-0.744-3.884-0.408-1.052-0.957-1.945-1.845-2.835-0.889-0.889-1.78-1.439-2.835-1.845-1.020-0.396-2.181-0.665-3.884-0.744-1.707-0.080-2.249-0.096-6.596-0.096zM16 2.88c4.271 0 4.78 0.021 6.467 0.095 1.56 0.073 2.407 0.332 2.969 0.553 0.749 0.289 1.28 0.636 1.843 1.195 0.559 0.56 0.905 1.092 1.195 1.841 0.219 0.563 0.48 1.409 0.551 2.969 0.076 1.688 0.093 2.195 0.093 6.467s-0.020 4.78-0.099 6.467c-0.081 1.56-0.341 2.407-0.561 2.969-0.299 0.749-0.639 1.28-1.199 1.843-0.559 0.559-1.099 0.905-1.84 1.195-0.56 0.219-1.42 0.48-2.98 0.551-1.699 0.076-2.199 0.093-6.479 0.093-4.281 0-4.781-0.020-6.479-0.099-1.561-0.081-2.421-0.341-2.981-0.561-0.759-0.299-1.28-0.639-1.839-1.199-0.561-0.559-0.92-1.099-1.2-1.84-0.22-0.56-0.479-1.42-0.56-2.98-0.060-1.68-0.081-2.199-0.081-6.459 0-4.261 0.021-4.781 0.081-6.481 0.081-1.56 0.34-2.419 0.56-2.979 0.28-0.76 0.639-1.28 1.2-1.841 0.559-0.559 1.080-0.919 1.839-1.197 0.56-0.221 1.401-0.481 2.961-0.561 1.7-0.060 2.2-0.080 6.479-0.080zM16 7.784c-4.54 0-8.216 3.68-8.216 8.216 0 4.54 3.68 8.216 8.216 8.216 4.54 0 8.216-3.68 8.216-8.216 0-4.54-3.68-8.216-8.216-8.216zM16 21.333c-2.947 0-5.333-2.387-5.333-5.333s2.387-5.333 5.333-5.333 5.333 2.387 5.333 5.333-2.387 5.333-5.333 5.333zM26.461 7.46c0 1.060-0.861 1.92-1.92 1.92-1.060 0-1.92-0.861-1.92-1.92s0.861-1.919 1.92-1.919c1.057-0.001 1.92 0.86 1.92 1.919z"></path>
</symbol>
</defs>
</svg>
