<!-- Generated by IcoMoon.io -->
<svg version="1.1" xmlns="http://www.w3.org/2000/svg" width="32" height="32" viewBox="0 0 32 32">
<path d="M7.888 13.288h-6.65c-0.338 0-0.613 0.275-0.613 0.612s0.275 0.613 0.613 0.613h6.65c0.338 0 0.612-0.275 0.612-0.613s-0.275-0.612-0.612-0.612z"></path>
<path d="M7.888 16.9h-3.062c-0.338 0-0.612 0.275-0.612 0.612s0.275 0.613 0.612 0.613h3.062c0.338 0 0.612-0.275 0.612-0.613s-0.275-0.612-0.612-0.612z"></path>
<path d="M7.888 20.512h-5.050c-0.337 0-0.612 0.275-0.612 0.612s0.275 0.613 0.612 0.613h5.050c0.338 0 0.612-0.275 0.612-0.613s-0.275-0.612-0.612-0.612z"></path>
<path d="M30.362 12.988c-0.5-1.062-1.162-2.025-1.975-2.862-0.387-0.412-0.825-0.787-1.275-1.125l0.8-1.062c0.2-0.275 0.15-0.663-0.125-0.863s-0.662-0.15-0.862 0.125l-0.85 1.125c-0.562-0.338-1.162-0.612-1.775-0.838-0.538-0.188-1.087-0.337-1.65-0.45-0.362-0.063-0.737-0.112-1.1-0.138v-1.862h1.238c0.338 0 0.613-0.275 0.613-0.612s-0.275-0.612-0.613-0.612h-3.712c-0.337 0-0.613 0.275-0.613 0.612s0.275 0.612 0.613 0.612h1.238v1.813c-1.425 0.050-2.838 0.388-4.138 0.987-1.062 0.5-2.025 1.15-2.875 1.962-1.188 1.125-2.1 2.538-2.662 4.075-0.2 0.538-0.35 1.113-0.463 1.688s-0.162 1.15-0.188 1.725c-0.038 1.65 0.313 3.3 1.025 4.8 0.5 1.050 1.15 2 1.962 2.838 1.138 1.188 2.55 2.1 4.088 2.65 0.538 0.188 1.087 0.338 1.65 0.45 0.562 0.1 1.125 0.162 1.7 0.175 0.087 0 0.188 0 0.275 0 1.55 0 3.1-0.338 4.5-1 1.050-0.488 2.012-1.138 2.85-1.938 1.2-1.137 2.125-2.55 2.688-4.1 0.2-0.537 0.35-1.112 0.45-1.675 0.113-0.575 0.175-1.162 0.188-1.737 0.050-1.638-0.3-3.288-1-4.763zM29.975 19.25c-0.1 0.512-0.225 1-0.4 1.488-0.5 1.362-1.313 2.625-2.375 3.625-0.738 0.7-1.587 1.288-2.525 1.712-1.313 0.613-2.788 0.925-4.212 0.875-0.5-0.012-1-0.063-1.5-0.163-0.5-0.087-0.988-0.225-1.462-0.387-1.362-0.488-2.613-1.3-3.613-2.35-0.713-0.738-1.3-1.588-1.738-2.512-0.625-1.313-0.937-2.788-0.9-4.238 0.012-0.512 0.063-1.025 0.163-1.525 0.1-0.512 0.237-1.012 0.4-1.488 0.488-1.362 1.3-2.6 2.35-3.6 0.75-0.713 1.6-1.3 2.55-1.737 1.237-0.575 2.613-0.875 3.975-0.875 0.075 0 0.162 0 0.238 0 0.5 0.012 1 0.063 1.5 0.163 0.5 0.088 0.988 0.225 1.462 0.4 1.362 0.488 2.613 1.287 3.613 2.337 0.712 0.75 1.3 1.6 1.75 2.538 0.613 1.313 0.925 2.762 0.888 4.212-0.012 0.5-0.063 1.025-0.163 1.525z"></path>
<path d="M24.512 13.238l-2.638 2.387c-0.137-0.088-0.275-0.15-0.425-0.213-0.113-0.038-0.225-0.075-0.338-0.088-0.125-0.025-0.238-0.038-0.35-0.038-0.337-0.012-0.688 0.063-1 0.213-0.225 0.1-0.425 0.238-0.6 0.412-0.25 0.238-0.437 0.525-0.55 0.85-0.038 0.112-0.075 0.225-0.1 0.35s-0.038 0.238-0.038 0.362c-0.012 0.35 0.063 0.688 0.212 1 0.1 0.225 0.238 0.413 0.413 0.588 0.238 0.25 0.538 0.437 0.85 0.55 0.112 0.038 0.225 0.075 0.337 0.087 0.113 0.025 0.238 0.038 0.35 0.038 0.025 0 0.037 0 0.062 0 0.325 0 0.65-0.075 0.938-0.212 0.212-0.1 0.425-0.238 0.6-0.4 0.25-0.238 0.437-0.538 0.562-0.85 0.038-0.112 0.075-0.225 0.1-0.35s0.038-0.238 0.038-0.362c0.012-0.338-0.063-0.688-0.212-1 0-0.012-0.012-0.012-0.012-0.025l2.65-2.387c0.25-0.225 0.275-0.625 0.050-0.875-0.25-0.237-0.638-0.262-0.9-0.037zM21.675 17.7c-0.012 0.050-0.025 0.113-0.037 0.163-0.050 0.137-0.138 0.275-0.25 0.375-0.075 0.075-0.162 0.137-0.262 0.175-0.138 0.062-0.288 0.087-0.438 0.087-0.050 0-0.113-0.012-0.162-0.012-0.050-0.012-0.1-0.025-0.15-0.037-0.137-0.050-0.275-0.138-0.375-0.25-0.075-0.075-0.138-0.162-0.188-0.262-0.062-0.138-0.1-0.288-0.1-0.438 0-0.050 0.012-0.113 0.012-0.162 0.012-0.050 0.025-0.113 0.037-0.163 0.050-0.137 0.138-0.275 0.25-0.375 0.075-0.075 0.162-0.137 0.262-0.188 0.138-0.062 0.275-0.087 0.413-0.087 0.012 0 0.012 0 0.025 0 0.050 0 0.1 0.012 0.162 0.012 0.050 0.012 0.1 0.025 0.15 0.037 0.15 0.050 0.275 0.138 0.375 0.25 0.075 0.075 0.138 0.175 0.188 0.262 0.063 0.138 0.1 0.288 0.087 0.438 0.012 0.062 0 0.125 0 0.175z"></path>
</svg>
