<!-- Generated by IcoMoon.io -->
<svg version="1.1" xmlns="http://www.w3.org/2000/svg" width="32" height="32" viewBox="0 0 32 32">
<path d="M29.976 15.783l-2-9c-0.056-0.252-0.207-0.472-0.421-0.615l-6-4c-0.164-0.11-0.357-0.168-0.555-0.168h-10c-0.197 0-0.39 0.058-0.555 0.168l-6 4c-0.215 0.143-0.366 0.363-0.421 0.615l-2 9c-0.037 0.167-0.031 0.34 0.018 0.504l3 10c0.048 0.159 0.134 0.303 0.251 0.42s0.261 0.203 0.42 0.251l10.005 3c0.184 0.055 0.38 0.055 0.564 0l0.005-0 10-3c0.159-0.047 0.303-0.134 0.42-0.251s0.203-0.261 0.251-0.42l3-10c0.049-0.164 0.055-0.337 0.018-0.504zM10.926 16.616l-3.909-7.819 7.282 2.648-3.372 5.171zM16 12.497l3.589 5.503h-7.178l3.589-5.503zM19.382 20l-3.382 6.764-3.382-6.764h6.764zM17.702 11.445l7.281-2.648-3.91 7.819-3.372-5.171zM18.19 9.14l3.096-4.747 3.515 2.343-6.611 2.404zM16 8.836l-3.154-4.836h6.308l-3.154 4.836zM13.81 9.14l-6.611-2.404 3.515-2.343 3.096 4.747zM8.966 17.17l-4.802-1.801 1.201-5.402 3.601 7.203zM14.070 27.377l-6.502-1.951 3.128-4.797 3.374 6.748zM21.303 20.629l3.128 4.797-6.502 1.951 3.373-6.748zM26.635 9.967l1.201 5.402-4.802 1.801 3.601-7.203zM4.537 17.645l4.594 1.723-2.793 4.283-1.802-6.006zM25.661 23.65l-2.793-4.283 4.594-1.723-1.802 6.005z"></path>
</svg>
