<!-- Generated by IcoMoon.io -->
<svg version="1.1" xmlns="http://www.w3.org/2000/svg" width="32" height="32" viewBox="0 0 32 32">
<path d="M31.846 22.407c-0.313-0.878-0.955-1.562-1.808-1.937s-1.793-0.38-2.651-0.015l-5.754 2.43c0.005-0.067 0.010-0.144 0.010-0.216 0-1.12-0.909-2.029-2.029-2.029h-4.151c-0.17 0-0.334-0.036-0.488-0.108l-3.519-1.587c-0.55-0.252-1.161-0.385-1.767-0.385h-2.98v-0.288c0-0.565-0.457-1.027-1.027-1.027h-5.682v12.966h5.682c0.57 0 1.027-0.462 1.027-1.027v-0.806h1.649l6.139 1.973c0.509 0.159 1.033 0.241 1.562 0.241 0.832 0 1.664-0.2 2.404-0.596l13.537-7.172-0.154-0.416zM3.611 28.304c-0.396 0-0.719-0.324-0.719-0.719 0-0.401 0.324-0.724 0.719-0.724s0.719 0.324 0.719 0.724c0 0.396-0.324 0.719-0.719 0.719zM17.986 29.085c-0.971 0.519-2.127 0.616-3.175 0.283l-6.216-1.998-1.885-0.021v-7.762h2.98c0.462 0 0.925 0.103 1.341 0.293l3.519 1.593c0.288 0.128 0.596 0.195 0.914 0.195h4.151c0.555 0 1.002 0.452 1.002 1.002 0 0.555-0.447 1.002-1.002 1.002h-5.374v1.027h5.374c0.375 0 0.724-0.098 1.022-0.277l7.151-3.021c0.596-0.252 1.248-0.247 1.839 0.010 0.452 0.2 0.822 0.529 1.068 0.945l-12.71 6.73z"></path>
<path d="M4.654 15.172l3.199-1.773 3.133 1.887-0.697-3.591 2.299-1.994-0.849 3.657c-0.046 0.198 0.029 0.404 0.191 0.526s0.381 0.138 0.558 0.039l3.556-1.97 3.482 2.098c0.168 0.102 0.388 0.1 0.559-0.019 0.166-0.116 0.248-0.32 0.21-0.519l-0.775-3.991 0.073-0.063 2.303 2.149-0.827 3.563 3.199-1.773 3.133 1.887-0.697-3.591 2.763-2.396-3.63-0.446-1.425-3.369-1.546 3.315-2.788 0.241 2.513-2.18c0.154-0.133 0.214-0.344 0.155-0.538s-0.227-0.335-0.428-0.36l-4.035-0.496-1.584-3.744c-0.079-0.187-0.261-0.31-0.464-0.314-0.003 0-0.007 0-0.010 0-0.199 0-0.381 0.115-0.466 0.296l-1.719 3.684-4.050 0.35c-0.441 0.038-0.632 0.582-0.307 0.887l2.79 2.603-3.053-0.376-1.425-3.369-1.546 3.315-3.644 0.315 2.675 2.495-0.827 3.563zM14.426 6.388c0.183-0.016 0.344-0.128 0.421-0.294l1.356-2.906 1.25 2.953c0.072 0.169 0.228 0.287 0.41 0.31l3.183 0.391-2.423 2.101c-0.139 0.12-0.203 0.306-0.168 0.486l0.611 3.148-2.747-1.655c-0.158-0.096-0.355-0.098-0.514-0.009l-2.805 1.554 0.725-3.124c0.042-0.179-0.016-0.366-0.15-0.492l-2.345-2.188 3.195-0.276z"></path>
</svg>
