<!-- Generated by IcoMoon.io -->
<svg version="1.1" xmlns="http://www.w3.org/2000/svg" width="94" height="32" viewBox="0 0 94 32">
<path d="M40.706 14c-0.002-0.442-0.291-0.845-0.703-0.997l-9.882-3.529c-0.23-0.081-0.482-0.081-0.712 0l-9.882 3.529c-0.411 0.154-0.701 0.554-0.703 0.998v11.522c0.005 0.439 0.288 0.846 0.703 0.996l9.882 3.529c0.226 0.079 0.486 0.080 0.712 0l9.882-3.529c0.266-0.101 0.488-0.301 0.607-0.56 0.060-0.138 0.089-0.286 0.096-0.436v-11.522zM20.941 15.502l7.765 2.773v9.271l-7.765-2.773v-9.271zM30.824 18.276l7.765-2.773v9.271l-7.765 2.773v-9.271zM29.765 11.595l6.734 2.405-6.734 2.405-6.734-2.405 6.734-2.405z"></path>
<path d="M7.227 26.98v-13.787h-4.533v-2.493h12.331v2.493h-4.533v13.787h-3.265zM45.995 10.701h6.386c1.787 0 3.118 0.408 3.993 1.224 0.875 0.809 1.313 2.132 1.313 3.971 0 1.257-0.173 2.29-0.518 3.099-0.346 0.802-0.93 1.397-1.754 1.787-0.816 0.39-1.934 0.585-3.353 0.585h-2.79v5.614h-3.276v-16.279zM52.58 18.973c0.551 0 0.974-0.107 1.268-0.32s0.496-0.537 0.607-0.971 0.165-0.974 0.165-1.621c0-0.574-0.055-1.088-0.165-1.544-0.103-0.456-0.294-0.816-0.574-1.081-0.279-0.272-0.676-0.408-1.191-0.408h-3.419v5.945h3.309zM66.576 27.278c-1.382 0-2.51-0.202-3.386-0.607-0.875-0.412-1.518-0.996-1.93-1.754-0.412-0.765-0.618-1.68-0.618-2.746h2.956c0 0.677 0.103 1.206 0.309 1.588 0.213 0.382 0.54 0.651 0.981 0.805s1.015 0.232 1.72 0.232c0.986 0 1.698-0.224 2.14-0.673 0.449-0.456 0.673-1.118 0.673-1.985 0-0.669-0.1-1.195-0.298-1.577s-0.559-0.654-1.081-0.816c-0.514-0.162-1.246-0.243-2.195-0.243v-2.195c0.794 0 1.423-0.044 1.886-0.132 0.471-0.096 0.82-0.235 1.048-0.419 0.228-0.191 0.375-0.434 0.441-0.728 0.073-0.294 0.11-0.64 0.11-1.037 0-0.676-0.198-1.199-0.595-1.566s-1.129-0.551-2.195-0.551c-0.735 0-1.313 0.085-1.732 0.254s-0.717 0.452-0.894 0.849c-0.176 0.39-0.265 0.927-0.265 1.61h-2.945c0-1.301 0.239-2.331 0.717-3.088s1.151-1.294 2.018-1.61c0.868-0.323 1.89-0.485 3.066-0.485 1.162 0 2.184 0.173 3.066 0.518s1.57 0.849 2.062 1.511c0.5 0.662 0.75 1.463 0.75 2.404 0 0.544-0.073 1.077-0.22 1.599-0.14 0.515-0.419 0.956-0.838 1.324-0.419 0.36-1.044 0.592-1.875 0.695l0.067-0.165c0.765 0.14 1.364 0.401 1.798 0.783 0.441 0.382 0.754 0.849 0.937 1.401s0.276 1.154 0.276 1.809c0 0.949-0.203 1.801-0.607 2.559-0.397 0.75-1.033 1.346-1.908 1.787-0.868 0.434-2.015 0.651-3.442 0.651zM76.392 26.98v-16.279h7.059c1.574 0 2.794 0.254 3.662 0.761 0.868 0.5 1.475 1.18 1.82 2.040 0.346 0.853 0.518 1.813 0.518 2.879v4.996c0 1.081-0.183 2.044-0.551 2.89-0.361 0.846-0.974 1.511-1.842 1.996-0.868 0.478-2.066 0.717-3.595 0.717h-7.070zM79.668 24.433h3.507c0.772 0 1.375-0.092 1.808-0.276 0.434-0.191 0.739-0.482 0.915-0.871 0.184-0.39 0.276-0.886 0.276-1.489v-5.846c0-0.588-0.092-1.081-0.276-1.478-0.184-0.404-0.496-0.71-0.937-0.915-0.434-0.206-1.029-0.309-1.786-0.309h-3.507v11.184z"></path>
</svg>
