<!-- Generated by IcoMoon.io -->
<svg version="1.1" xmlns="http://www.w3.org/2000/svg" width="32" height="32" viewBox="0 0 32 32">
<path fill="none" stroke-linejoin="round" stroke-linecap="round" stroke-miterlimit="10" stroke-width="1.6" stroke="#000" d="M20 26c5.523 0 10-4.477 10-10s-4.477-10-10-10c-5.523 0-10 4.477-10 10s4.477 10 10 10z"></path>
<path fill="none" stroke-linejoin="round" stroke-linecap="round" stroke-miterlimit="10" stroke-width="1.6" stroke="#000" d="M20 17c0.552 0 1-0.448 1-1s-0.448-1-1-1c-0.552 0-1 0.448-1 1s0.448 1 1 1z"></path>
<path fill="none" stroke-linejoin="round" stroke-linecap="round" stroke-miterlimit="10" stroke-width="1.6" stroke="#000" d="M20 13.333c-0.567 0-1-0.433-1-1v-3.333c0-0.533 0.433-1 1-1 0.533 0 1 0.433 1 1v3.333c0 0.567-0.433 1-1 1z"></path>
<path fill="none" stroke-linejoin="round" stroke-linecap="round" stroke-miterlimit="10" stroke-width="1.6" stroke="#000" d="M25.733 21.733c-0.4 0.4-1.033 0.4-1.4 0l-2.367-2.367c-0.4-0.4-0.4-1.033 0-1.4 0.4-0.4 1.033-0.4 1.4 0l2.367 2.367c0.4 0.367 0.4 1 0 1.4z"></path>
<path fill="none" stroke-linejoin="round" stroke-linecap="round" stroke-miterlimit="10" stroke-width="1.6" stroke="#000" d="M18.067 17.967c0.4 0.4 0.4 1.033 0 1.4l-2.367 2.367c-0.4 0.4-1.033 0.4-1.4 0-0.4-0.4-0.4-1.033 0-1.4l2.367-2.367c0.367-0.4 1-0.4 1.4 0z"></path>
<path fill="none" stroke-linejoin="round" stroke-linecap="round" stroke-miterlimit="10" stroke-width="1.6" stroke="#000" d="M11.667 7.333h-3.667c-0.733 0-1.333 0.6-1.333 1.333v6.667c0 0.733-0.6 1.333-1.333 1.333h-3.333"></path>
</svg>
