<!-- Generated by IcoMoon.io -->
<svg version="1.1" xmlns="http://www.w3.org/2000/svg" width="32" height="32" viewBox="0 0 32 32">
<path d="M4.031 23.455l-0.759 0.759 4.514 4.514 0.759-0.759-4.514-4.514z"></path>
<path d="M25.273 7.241l-18.213 18.213 2 2 18.213-18.213-2-2z"></path>
<path d="M22.759 4.727l-18.213 18.213 2 2 18.213-18.213-2-2z"></path>
<path d="M29.974 6.54c0.297-0.296 0.533-0.648 0.693-1.036s0.244-0.803 0.244-1.222-0.082-0.835-0.243-1.223c-0.16-0.388-0.396-0.74-0.692-1.036s-0.649-0.532-1.036-0.692-0.803-0.243-1.223-0.243c-0.419 0-0.835 0.083-1.222 0.244s-0.739 0.397-1.036 0.693l-0.914 0.914 4.514 4.514 0.914-0.914z"></path>
<path d="M24.031 3.454l-0.759 0.759 4.514 4.514 0.759-0.759-4.514-4.514z"></path>
<path d="M1.107 30.437c-0.020 0.063-0.022 0.131-0.006 0.195s0.049 0.123 0.096 0.17 0.106 0.080 0.17 0.096c0.064 0.016 0.132 0.014 0.195-0.006l5.608-1.753-4.311-4.311-1.753 5.608z"></path>
<path d="M3.561 8.288c0.069-0.066 0.16-0.103 0.256-0.102s0.187 0.039 0.254 0.106c0.067 0.067 0.106 0.159 0.107 0.254s-0.036 0.187-0.102 0.256l-1.713 1.713 1.304 1.304 1.713-1.713c0.069-0.066 0.16-0.103 0.256-0.102s0.187 0.039 0.254 0.106c0.067 0.067 0.106 0.159 0.106 0.254s-0.036 0.187-0.102 0.256l-1.713 1.713 1.304 1.304 1.713-1.713c0.069-0.066 0.16-0.103 0.256-0.102s0.187 0.039 0.254 0.106c0.067 0.067 0.106 0.159 0.106 0.254s-0.036 0.187-0.102 0.256l-1.713 1.713 1.304 1.304 1.713-1.713c0.069-0.066 0.16-0.103 0.256-0.102s0.187 0.039 0.254 0.107c0.067 0.067 0.106 0.159 0.107 0.254s-0.036 0.187-0.102 0.256l-1.713 1.713 1.336 1.336 6.182-6.182-8.938-8.942-5.927 5.924c-0.068 0.069-0.106 0.161-0.106 0.258s0.038 0.19 0.106 0.258l1.379 1.379 1.713-1.713z"></path>
<path d="M17.305 9.153l-8.684-8.684c-0.069-0.068-0.161-0.106-0.258-0.106s-0.19 0.038-0.258 0.106l-1.196 1.2 8.942 8.938 1.455-1.455z"></path>
<path d="M31.531 23.378l-8.684-8.684-1.455 1.455 8.938 8.942 1.2-1.196c0.068-0.069 0.106-0.161 0.106-0.258s-0.038-0.19-0.106-0.258z"></path>
<path d="M14.695 22.847l1.336 1.336 1.713-1.713c0.069-0.066 0.16-0.103 0.256-0.102s0.187 0.039 0.254 0.107c0.067 0.067 0.106 0.159 0.106 0.254s-0.036 0.187-0.102 0.256l-1.713 1.713 1.304 1.304 1.713-1.713c0.034-0.035 0.074-0.062 0.118-0.082s0.092-0.029 0.14-0.029c0.048-0 0.096 0.009 0.141 0.027s0.085 0.045 0.119 0.079c0.034 0.034 0.061 0.075 0.079 0.119s0.027 0.093 0.027 0.141c-0 0.048-0.010 0.096-0.029 0.14s-0.047 0.084-0.082 0.118l-1.713 1.713 1.304 1.304 1.713-1.713c0.034-0.035 0.074-0.062 0.118-0.081s0.092-0.029 0.14-0.030c0.048-0 0.096 0.009 0.141 0.027s0.085 0.045 0.119 0.079c0.034 0.034 0.061 0.075 0.079 0.119s0.027 0.093 0.027 0.141c-0 0.048-0.010 0.096-0.030 0.14s-0.047 0.084-0.081 0.118l-1.713 1.713 1.304 1.304 1.713-1.713c0.034-0.035 0.074-0.062 0.118-0.082s0.092-0.029 0.14-0.029c0.048-0 0.096 0.009 0.141 0.027s0.085 0.045 0.119 0.079c0.034 0.034 0.061 0.075 0.079 0.119s0.027 0.093 0.027 0.141c-0 0.048-0.010 0.096-0.030 0.14s-0.047 0.085-0.082 0.118l-1.713 1.713 1.379 1.379c0.069 0.068 0.162 0.105 0.258 0.105s0.189-0.038 0.258-0.105l5.924-5.927-8.942-8.938-6.182 6.182z"></path>
</svg>
